<svg xmlns="http://www.w3.org/2000/svg" width="160.141" height="14.1" viewBox="0 0 160.141 14.1">
  <g id="appicon_1024" data-name="appicon 1024" transform="translate(-2030.666 -948.711)">
    <g id="Layer_1" data-name="Layer 1" transform="translate(2030.666 948.711)">
      <g id="Group_104597" data-name="Group 104597" transform="translate(0 0)">
        <g id="Group_104595" data-name="Group 104595" transform="translate(0)">
          <path id="Path_190831" data-name="Path 190831" d="M.73,7.05C.73,2.778,3.83,0,8.232,0c3.885,0,6.828,1.983,6.828,5.089v.245h-1.73V5.089c0-2.329-1.775-3.679-5.077-3.679-3.751,0-5.84,1.921-5.84,5.64s2.089,5.64,5.84,5.64c3.3,0,5.077-1.348,5.077-3.679V8.766h1.73v.245c0,3.106-2.92,5.089-6.828,5.089C3.83,14.1.73,11.321.73,7.05Z" transform="translate(-0.73 0)"/>
          <path id="Path_190832" data-name="Path 190832" d="M107.682,15.02V1.33h7.367c3.145,0,5.278,1.452,5.278,3.964,0,2.309-1.864,3.739-4.65,3.8v.1a3.32,3.32,0,0,1,2.066,1.635l2.831,4.19h-1.843l-2.672-3.964c-.763-1.144-1.55-1.635-3.55-1.635h-3.234v5.6H107.68Zm1.595-6.764h5.751c2.381,0,3.639-.859,3.639-2.8s-1.258-2.8-3.639-2.8h-5.751Z" transform="translate(-91.217 -1.125)"/>
          <path id="Path_190833" data-name="Path 190833" d="M203.41,15.02V1.33h11.432V2.658H205V7.481h9.5V8.789H205v4.9h9.838v1.328H203.41Z" transform="translate(-172.212 -1.125)"/>
          <path id="Path_190834" data-name="Path 190834" d="M292.42,15.02V1.33h6.536c4.515,0,7.39,2.657,7.39,6.845s-2.875,6.845-7.39,6.845Zm1.618-12.364V13.692h4.92c3.819,0,5.7-1.8,5.7-5.517s-1.887-5.517-5.7-5.517h-4.92Z" transform="translate(-247.521 -1.125)"/>
          <path id="Path_190835" data-name="Path 190835" d="M396.75,15.02V1.33h1.595V15.022H396.75Z" transform="translate(-335.791 -1.125)"/>
          <path id="Path_190836" data-name="Path 190836" d="M423.52,15.02V2.658h-6.2V1.33h13.971V2.658h-6.177V15.022h-1.595Z" transform="translate(-353.195 -1.125)"/>
        </g>
        <g id="Group_104596" data-name="Group 104596" transform="translate(81.821 0.293)">
          <path id="Path_190837" data-name="Path 190837" d="M6.023,135.847v-4.262L0,122.44H4.663l2.021,3.182L7.824,127.5h.26l1.141-1.881,2.021-3.182h4.683L9.785,131.6v4.242H6.023Z" transform="translate(0 -122.24)" fill="#0068ff"/>
          <path id="Path_190838" data-name="Path 190838" d="M104.13,128.044c0-4.182,2.761-6.9,7.424-6.9s7.5,2.721,7.5,6.9-2.721,6.9-7.5,6.9S104.13,132.226,104.13,128.044Zm10.926,0c0-2.661-.78-3.3-3.5-3.3s-3.422.64-3.422,3.3.7,3.3,3.422,3.3S115.056,130.705,115.056,128.044Z" transform="translate(-88.101 -121.14)" fill="#0068ff"/>
          <path id="Path_190839" data-name="Path 190839" d="M209.04,135.847V122.44h6.784c4.422,0,7.224,2.461,7.224,6.7s-2.8,6.7-7.224,6.7Zm3.762-10.025v6.644h3.022c2.381,0,3.2-.3,3.2-3.322s-.82-3.322-3.2-3.322Z" transform="translate(-176.863 -122.24)" fill="#0068ff"/>
          <path id="Path_190840" data-name="Path 190840" d="M306.54,135.847V122.44H310.3v4.983h6.243V122.44h3.762v13.407h-3.762V130.8H310.3v5.043Z" transform="translate(-259.355 -122.24)" fill="#0068ff"/>
          <path id="Path_190841" data-name="Path 190841" d="M398.57,135.847l5.783-13.407h5.383l5.8,13.407h-4.322l-1.021-2.481h-6.363l-1.041,2.481Zm6.684-5.863h3.562l-.78-1.881-.88-2.261h-.26l-.86,2.261Z" transform="translate(-337.219 -122.24)" fill="#0068ff"/>
        </g>
      </g>
    </g>
  </g>
</svg>
