<svg width="24" height="24" viewBox="0 0 24 24" fill="none" xmlns="http://www.w3.org/2000/svg">
<path d="M13.1365 3.62897C12.7598 2.9842 12.3832 2.33944 12.0075 1.69409C9.60607 5.81347 7.19564 9.92752 4.78522 14.0416C3.27037 16.6271 1.75553 19.2125 0.242924 21.7994C0.156387 21.9525 0.0847413 22.1134 0.0132221 22.2741L0 22.3038C2.48931 22.3073 4.97861 22.3082 7.46792 22.2932C7.75527 21.8008 8.0409 21.3073 8.32654 20.8138C8.80398 19.9889 9.28149 19.1638 9.76731 18.3437C11.323 15.7185 12.8228 13.0609 14.3226 10.4035C14.7739 9.60392 15.2251 8.80436 15.6779 8.00569C14.8384 6.54225 13.9874 5.0856 13.1365 3.62897Z" fill="#AE285D"/>
<path d="M13.6642 14.5147C13.1122 14.5157 12.5603 14.5167 12.0084 14.5169C12.8641 16.0531 13.7523 17.5702 14.6407 19.0874C15.2663 20.156 15.8921 21.2247 16.5065 22.3002C17.1678 22.3006 17.8291 22.3017 18.4904 22.3027C20.3269 22.3055 22.1632 22.3084 24 22.2993C23.175 20.844 22.3309 19.3998 21.4867 17.9555C20.8223 16.8188 20.1579 15.6821 19.5028 14.5399C17.5566 14.5075 15.6104 14.5111 13.6642 14.5147Z" fill="#AE285D"/>
</svg>
