<svg width="24" height="24" viewBox="0 0 24 24" fill="none" xmlns="http://www.w3.org/2000/svg">
<g clip-path="url(#clip0_45_4182)">
<path d="M24 11.9986C24 18.6274 18.6291 24.0002 11.999 24.0002C5.37283 24.0002 0 18.6274 0 11.9986C0 5.37502 5.37283 -0.000387192 11.999 -0.000387192C18.6291 -0.000387192 24 5.37502 24 11.9986Z" fill="white"/>
<path d="M11.9118 20.9804C13.0407 20.9824 14.1753 20.6762 15.1285 20.0658C15.7055 19.7312 16.2202 19.283 16.642 18.7668C16.9223 18.466 17.1242 18.1103 17.3402 17.763C17.6985 17.0675 17.9638 16.3169 18.0365 15.5336C18.1408 14.6599 18.057 13.7647 17.8044 12.9233C17.6193 12.2838 17.3258 11.6782 16.9558 11.1253C16.4466 10.3738 15.7892 9.70942 15.0033 9.25277C14.8263 9.14221 14.6744 9.03086 14.4955 8.92184C14.2322 8.73969 13.8065 8.51125 13.4941 8.75465C13.1765 9.06717 13.1914 9.55942 13.1639 9.97918C13.1619 12.9503 13.1481 15.921 13.1542 18.8923C13.1357 19.1417 13.213 19.4441 12.9572 19.5901C12.6925 19.7507 12.3955 19.8554 12.0862 19.904C11.8326 19.9767 11.5932 19.8667 11.3458 19.82C11.1346 19.7468 10.9043 19.6552 10.7501 19.508C10.5263 19.3107 10.6608 18.9626 10.6242 18.6861C10.6203 15.6471 10.6319 12.6074 10.6183 9.56883C10.574 9.24259 10.5382 8.84352 10.2334 8.64869C10.0924 8.57688 9.93538 8.58665 9.79088 8.64739C9.44521 8.74852 9.1515 9.04093 8.85855 9.2146C8.34889 9.51449 7.87897 9.88591 7.48287 10.3294C7.13288 10.6828 6.85536 11.0979 6.59924 11.5244C6.23356 12.1899 5.9549 12.9059 5.82862 13.6567C5.70065 14.3503 5.68773 15.063 5.79676 15.7613C5.96123 16.8243 6.42086 17.8383 7.08888 18.6786C7.74985 19.5204 8.65847 20.1381 9.63776 20.5566C10.3635 20.8247 11.1345 20.9902 11.9118 20.9804Z" fill="#F58220"/>
<path d="M11.935 7.06129C12.0184 7.05806 12.1045 7.0704 12.1847 7.04966C12.2356 7.04643 12.2811 7.00849 12.3349 7.01799C12.3694 6.99021 12.4082 6.96144 12.4524 6.95983C12.4929 6.93482 12.5561 6.94386 12.5766 6.8894C12.6211 6.87383 12.6574 6.84834 12.6978 6.82579C12.7364 6.80699 12.7649 6.76645 12.8015 6.74133C12.8582 6.71716 12.8765 6.65267 12.9309 6.62515C12.9587 6.59059 12.9832 6.55368 13.0185 6.52436C13.0533 6.47306 13.089 6.42359 13.1096 6.36414C13.1452 6.33668 13.1513 6.28793 13.1755 6.25081C13.1942 6.20946 13.2189 6.17302 13.228 6.12892C13.2464 6.09061 13.2636 6.05143 13.2582 6.0075C13.2784 5.95433 13.264 5.89272 13.3015 5.84468C13.2989 5.72193 13.3067 5.59639 13.2976 5.47539C13.2577 5.42467 13.2775 5.35821 13.2583 5.30054C13.2525 5.25854 13.244 5.21358 13.2183 5.17932C13.1876 5.06035 13.1095 4.96238 13.0545 4.85509C13.0274 4.81911 13.0133 4.78164 12.9738 4.7573C12.9362 4.70458 12.8798 4.66914 12.8499 4.61065C12.7957 4.60742 12.7685 4.55166 12.7267 4.52496C12.6976 4.49427 12.6518 4.48116 12.6196 4.45603C12.5808 4.4402 12.5615 4.39936 12.5129 4.40098C12.4443 4.37197 12.3779 4.32902 12.3021 4.31537C12.2605 4.29547 12.2259 4.26756 12.1763 4.27984C12.1221 4.27854 12.0691 4.26678 12.0145 4.26678C11.921 4.25561 11.8261 4.26807 11.7332 4.27195C11.6765 4.29301 11.6083 4.25983 11.559 4.30531C11.4993 4.33438 11.4321 4.33747 11.3749 4.37128C11.3379 4.39984 11.2861 4.39754 11.2574 4.43591C11.2073 4.44515 11.1728 4.48695 11.1251 4.5037C11.0853 4.53652 11.0426 4.57441 11.0066 4.60718C10.9555 4.60071 10.947 4.66597 10.9111 4.69239C10.873 4.71946 10.8642 4.76488 10.8284 4.79188C10.7608 4.86784 10.7024 4.95508 10.6631 5.04958C10.6567 5.09474 10.6162 5.12057 10.6144 5.16753C10.5936 5.21146 10.5743 5.24879 10.565 5.29494C10.5538 5.34223 10.5676 5.39698 10.5331 5.43927C10.5382 5.55108 10.511 5.66316 10.5331 5.77406C10.5311 5.83337 10.5285 5.89295 10.5589 5.94642C10.5521 6.01992 10.5838 6.08596 10.6145 6.14986C10.6099 6.20142 10.6551 6.21984 10.662 6.26489C10.6784 6.30339 10.689 6.34473 10.7158 6.3785C10.7391 6.45592 10.8057 6.50362 10.8534 6.56431C10.8845 6.59209 10.8933 6.64094 10.9356 6.66037C10.9654 6.693 10.9881 6.73173 11.0332 6.7476C11.0591 6.7894 11.1144 6.799 11.1444 6.83944C11.1919 6.88266 11.2658 6.87543 11.3036 6.93183C11.337 6.95535 11.3887 6.95058 11.4195 6.97138C11.4533 6.98954 11.4976 7.00065 11.5335 7.01764C11.5852 7.02151 11.6268 7.05809 11.6792 7.0493C11.76 7.07437 11.8508 7.05483 11.935 7.06129Z" fill="#F58220"/>
<path d="M14.951 4.56996C15.1056 4.2297 15.5148 3.96972 15.8626 4.22944C16.551 4.66832 17.0729 5.3338 17.6692 5.89075C18.4468 6.64569 19.1546 7.48997 19.6404 8.46553C20.1458 9.4644 20.4434 10.5639 20.4801 11.6846C20.598 12.8163 20.4078 13.9768 20.0705 15.0584C19.3768 17.0928 17.9439 18.8954 16.0441 19.9247C13.4161 21.4092 10.0118 21.3104 7.44763 19.7369C5.00687 18.2802 3.42343 15.5333 3.29889 12.7028C3.23341 11.4022 3.43911 10.0866 3.96177 8.88834C4.46647 7.6904 5.3076 6.66352 6.24628 5.77323C6.77818 5.23831 7.26982 4.64823 7.90092 4.23461C8.16887 4.02883 8.59963 4.06738 8.74279 4.39227C9.05962 4.89412 9.27827 5.51674 9.26027 6.12699C9.18185 7.13206 8.30168 7.74832 7.59921 8.34565C6.76662 9.03143 6.18567 9.96527 5.70426 10.9222C5.2692 11.8553 5.04047 12.8773 5.07368 13.9235C5.07949 16.1648 6.1848 18.3869 7.99847 19.7141C9.18783 20.5469 10.6282 21.0281 12.0888 20.9804C14.0856 20.955 15.998 19.9192 17.2006 18.3444C18.2762 16.9567 18.8241 15.1698 18.7099 13.4152C18.6621 12.345 18.3283 11.3069 17.8312 10.3782C17.3686 9.54303 16.7405 8.7903 16.0009 8.1902C15.4489 7.67659 14.7741 7.1925 14.5963 6.42223C14.4628 5.78812 14.6802 5.13978 14.951 4.56996Z" fill="#F58220"/>
</g>
<defs>
<clipPath id="clip0_45_4182">
<rect width="24" height="24" fill="white"/>
</clipPath>
</defs>
</svg>
