<svg data-name="Group 105046" height="17.242" id="Group_105046" viewBox="0 0 17.242 17.242"
    width="17.242" xmlns="http://www.w3.org/2000/svg">
    <g id="Group_104965">
        <path d="M17.242,8.621A8.621,8.621,0,1,1,8.621,0a8.621,8.621,0,0,1,8.621,8.621"
            fill="#357ded"
            id="Path_190860" />
        <path d="M12.066,7.218l-3.9,3.84a.742.742,0,0,1-.53.22.8.8,0,0,1-.54-.21l-1.91-1.84a.722.722,0,0,1-.01-1.04.767.767,0,0,1,1.07-.01L7.626,9.5,11,6.178a.764.764,0,0,1,1.06,0,.722.722,0,0,1,.01,1.04"
            fill="#fff"
            fill-rule="evenodd" id="Path_190861" />
    </g>
</svg>
