<svg xmlns="http://www.w3.org/2000/svg" width="140.903" height="58.387" viewBox="0 0 140.903 58.387">
  <g id="appicon_1024" data-name="appicon 1024" transform="translate(-1963.464 -953.711)">
    <g id="Layer_1" data-name="Layer 1" transform="translate(1963.464 953.711)">
      <g id="Group_104597" data-name="Group 104597">
        <g id="Group_104595" data-name="Group 104595" transform="translate(0.202)">
          <path id="Path_190831" data-name="Path 190831" d="M.73,12.683C.73,5,6.307,0,14.227,0c6.99,0,12.284,3.567,12.284,9.155V9.6H23.4v-.44c0-4.19-3.193-6.619-9.133-6.619C7.517,2.537,3.76,5.993,3.76,12.683S7.517,22.83,14.266,22.83c5.94,0,9.133-2.426,9.133-6.619v-.44h3.113v.44c0,5.588-5.253,9.155-12.284,9.155C6.307,25.366.73,20.368.73,12.683Z" transform="translate(-0.73 0)"/>
          <path id="Path_190832" data-name="Path 190832" d="M107.683,25.96V1.33h13.254c5.658,0,9.5,2.611,9.5,7.131,0,4.154-3.354,6.727-8.366,6.837v.183a5.972,5.972,0,0,1,3.716,2.941l5.093,7.538H127.56l-4.807-7.131c-1.374-2.058-2.789-2.941-6.386-2.941h-5.818V25.963H107.68Zm2.869-12.168H120.9c4.284,0,6.547-1.545,6.547-5.037s-2.262-5.037-6.547-5.037H110.552Z" transform="translate(-78.063 -0.962)"/>
          <path id="Path_190833" data-name="Path 190833" d="M203.41,25.96V1.33h20.567V3.72h-17.7V12.4h17.095V14.75H206.279v8.823h17.7v2.39H203.41Z" transform="translate(-147.283 -0.962)"/>
          <path id="Path_190834" data-name="Path 190834" d="M292.42,25.96V1.33h11.758c8.122,0,13.3,4.78,13.3,12.315S312.3,25.96,304.178,25.96Zm2.91-22.243V23.57h8.851c6.871,0,10.263-3.234,10.263-9.925s-3.4-9.925-10.263-9.925h-8.851Z" transform="translate(-211.644 -0.962)"/>
          <path id="Path_190835" data-name="Path 190835" d="M396.75,25.96V1.33h2.869V25.963H396.75Z" transform="translate(-287.082 -0.962)"/>
          <path id="Path_190836" data-name="Path 190836" d="M428.475,25.96V3.72H417.32V1.33h25.134V3.72H431.341V25.963h-2.869Z" transform="translate(-301.956 -0.962)"/>
        </g>
        <g id="Group_104596" data-name="Group 104596" transform="translate(0 33.547)">
          <path id="Path_190837" data-name="Path 190837" d="M10.836,146.56v-7.668L0,122.44H8.388l3.636,5.724,2.052,3.384h.468l2.052-3.384,3.636-5.724h8.424L17.6,138.928v7.632H10.836Z" transform="translate(0 -122.08)" fill="#0068ff"/>
          <path id="Path_190838" data-name="Path 190838" d="M104.13,133.56c0-7.524,4.968-12.42,13.356-12.42s13.5,4.9,13.5,12.42-4.9,12.42-13.5,12.42S104.13,141.084,104.13,133.56Zm19.656,0c0-4.788-1.4-5.94-6.3-5.94s-6.156,1.152-6.156,5.94,1.26,5.94,6.156,5.94S123.786,138.348,123.786,133.56Z" transform="translate(-75.294 -121.14)" fill="#0068ff"/>
          <path id="Path_190839" data-name="Path 190839" d="M209.04,146.56V122.44h12.2c7.956,0,13,4.428,13,12.06s-5.04,12.06-13,12.06Zm6.768-18.036v11.952h5.436c4.284,0,5.76-.54,5.76-5.976s-1.476-5.976-5.76-5.976Z" transform="translate(-151.152 -122.08)" fill="#0068ff"/>
          <path id="Path_190840" data-name="Path 190840" d="M306.54,146.56V122.44h6.768V131.4H324.54V122.44h6.768v24.12H324.54v-9.072H313.308v9.072Z" transform="translate(-221.651 -122.08)" fill="#0068ff"/>
          <path id="Path_190841" data-name="Path 190841" d="M398.57,146.56l10.4-24.12h9.684l10.44,24.12h-7.776l-1.836-4.464H408.038l-1.872,4.464Zm12.024-10.548H417l-1.4-3.384-1.584-4.068h-.468L412,132.628Z" transform="translate(-288.196 -122.08)" fill="#0068ff"/>
        </g>
      </g>
    </g>
  </g>
</svg>
